<svg width="45" height="45" viewBox="0 0 45 45" fill="none" xmlns="http://www.w3.org/2000/svg">
<g clip-path="url(#clip0_33_2)">
<path d="M41.9936 43.6637C41.5734 44.0456 40.838 44.3636 39.7873 44.6181C38.7368 44.8726 37.6441 45 36.5095 45C35.0807 45 33.9881 44.8091 33.2316 44.4271C32.4752 44.0452 31.8869 43.3879 31.4666 42.4544L26.802 31.8904C26.0876 30.3206 25.3312 29.26 24.5327 28.7084C23.7343 28.1569 22.5576 27.8811 21.0027 27.8811C20.1279 27.8811 22.3133 25.391 24.7812 22.0055C27.9085 18.639 32.8632 13.3136 39.0801 8.34955C40.2267 7.39275 40.0312 4.38309 40.5001 5C40.7335 5.30711 40.5001 9.50285 40.5001 14C40.5001 16.7577 39.8714 19.0777 38.5266 21.0717C37.2239 23.0233 35.3118 24.5082 32.7904 25.5265C33.925 26.7144 34.8706 28.1569 35.627 29.8539L41.9936 43.6637Z" fill="white"/>
<path d="M17.7164 19.1335L13.4776 22.3288C13.4776 22.3288 10.5199 25.6762 9.33301 27.1788C8.14615 28.6813 6.35938 32.2189 6.35938 32.2189V5.91498C9.20114 9.69985 17.7164 8.4446 17.7164 8.4446C17.7164 8.4446 17.7164 8.6348 17.7164 19.1335Z" fill="white"/>
<path d="M15.736 44.1517C15.745 44.3016 15.7548 44.4328 15.7643 44.5435H9.88333H9.87455L9.8666 44.5439H9.86555H9.86201L9.85801 44.5443C9.85063 44.5443 9.83857 44.5446 9.82226 44.5446C9.78955 44.545 9.73989 44.5446 9.67625 44.542C9.54871 44.5367 9.36654 44.5226 9.15347 44.4868C8.72353 44.4149 8.18837 44.259 7.71997 43.9315C6.42477 43.025 5.66751 41.7469 5.44557 39.9058C5.22101 38.043 5.54588 35.6058 6.44598 32.4183C7.2078 29.7205 9.30998 26.9143 12.0304 24.2045C14.743 21.5024 18.0314 18.9336 21.109 16.7048C22.6469 15.5911 24.1296 14.564 25.4595 13.6487C25.6641 13.5078 25.8652 13.3695 26.0624 13.234C27.1448 12.4897 28.1095 11.8265 28.8911 11.2633C29.8028 10.6064 30.5059 10.0578 30.85 9.66086C30.9379 9.55945 31.0191 9.44944 31.0722 9.33468C31.1229 9.22501 31.1747 9.05171 31.1049 8.86646C31.0317 8.67197 30.8689 8.57869 30.7429 8.53601C30.6174 8.49353 30.4744 8.48071 30.3322 8.48071H30.3177H30.303H30.2881H30.273H30.2578H30.2424H30.2268H30.2111H30.1952H30.1791H30.1629H30.1465H30.1299H30.1132H30.0963H30.0792H30.062H30.0446H30.027H30.0093H29.9914H29.9734H29.9552H29.9368H29.9183H29.8996H29.8808H29.8618H29.8426H29.8233H29.8038H29.7842H29.7644H29.7445H29.7243H29.7041H29.6837H29.6631H29.6424H29.6215H29.6005H29.5793H29.558H29.5365H29.5149H29.4931H29.4712H29.4491H29.4269H29.4045H29.382H29.3593H29.3365H29.3135H29.2904H29.2671H29.2438H29.2202H29.1965H29.1727H29.1487H29.1246H29.1003H29.0759H29.0514H29.0266H29.0018H28.9769H28.9517H28.9265H28.9011H28.8756H28.8499H28.8241H28.7982H28.7721H28.7459H28.7196H28.6931H28.6665H28.6398H28.6129H28.5859H28.5587H28.5314H28.5041H28.4765H28.4489H28.421H28.3931H28.3651H28.3369H28.3086H28.2801H28.2516H28.2229H28.1941H28.1651H28.1361H28.1068H28.0775H28.0481H28.0185H27.9888H27.959H27.9291H27.899H27.8689H27.8385H27.8081H27.7776H27.7469H27.7162H27.6853H27.6543H27.6231H27.5919H27.5606H27.5291H27.4975H27.4658H27.434H27.402H27.37H27.3378H27.3055H27.2731H27.2407H27.2081H27.1753H27.1425H27.1096H27.0765H27.0434H27.0101H26.9767H26.9433H26.9097H26.876H26.8422H26.8083H26.7743H26.7402H26.7059H26.6716H26.6372H26.6027H26.5681H26.5333H26.4985H26.4636H26.4285H26.3934H26.3582H26.3229H26.2874H26.2519H26.2163H26.1806H26.1448H26.1088H26.0729H26.0367H26.0006H25.9643H25.9279H25.8914H25.8549H25.8182H25.7814H25.7446H25.7077H25.6707H25.6335H25.5963H25.559H25.5217H25.4842H25.4466H25.409H25.3713H25.3335H25.2956H25.2576H25.2195H25.1814H25.1431H25.1048H25.0664H25.0279H24.9894H24.9507H24.912H24.8732H24.8343H24.7953H24.7563H24.7172H24.6779H24.6387H24.5993H24.5599H24.5204H24.4808H24.4411H24.4014H24.3616H24.3217H24.2818H24.2417H24.2017H24.1615H24.1213H24.0809H24.0405H24.0001H23.9596H23.919H23.8783H23.8376H23.7968H23.7559H23.715H23.674H23.633H23.5918H23.5507H23.5094H23.4681H23.4267H23.3852H23.3438H23.3022H23.2606H23.2189H23.1771H23.1353H23.0935H23.0515H23.0096H22.9675H22.9254H22.8833H22.841H22.7987H22.7564H22.714H22.6716H22.6291H22.5866H22.544H22.5014H22.4586H22.4159H22.3731H22.3302H22.2873H22.2443H22.2014H22.1583H22.1152H22.072H22.0289H21.9856H21.9423H21.899H21.8556H21.8122H21.7687H21.7252H21.6816H21.638H21.5944H21.5507H21.5069H21.4632H21.4193H21.3755H21.3316H21.2877H21.2437H21.1997H21.1556H21.1116H21.0674H21.0233H20.9791H20.9348H20.8906H20.8463H20.802H20.7576H20.7131H20.6687H20.6243H20.5798H20.5352H20.4907H20.4461H20.4014H20.3568H20.3121H20.2674H20.2226H20.1779H20.1331H20.0883H20.0434H19.9986H19.9537H19.9088H19.8638H19.8188H19.7738H19.7288H19.6838H19.6387H19.5936H19.5485H19.5034H19.4583H19.4131H19.3679H19.3227H19.2775H19.2322H19.187H19.1417H19.0964H19.0511H19.0058H18.9605H18.9151H18.8698H18.8244H18.779H18.7336H18.6882H18.6428H18.5973H18.5519H18.5064H18.461H18.4155H18.37H18.3245H18.279H18.2335H18.188H18.1425H18.097H18.0514H18.0059H17.9603H17.9148H17.8693H17.8237H17.7782H17.7326H17.687H17.6415H17.5959H17.5504H17.5048H17.4593H17.4137H17.3681H17.3226H17.277H17.2315H17.1859H17.1404H17.0949H17.0494H17.0038H16.9583H16.9128H16.8673H16.8218H16.7763H16.7308H16.6853H16.6399H16.5944H16.549H16.5035H16.4581H16.4127H16.3673H16.3219H16.2766H16.2312H16.1859H16.1406H16.0952H16.0499H16.0046H15.9594H15.9141H15.8689H15.8237H15.7785H15.7333H15.6882H15.643H15.5979H15.5528H15.5077H15.4627H15.4177H15.3726H15.3276H15.2827H15.2377H15.1928H15.148H15.1031H15.0582H15.0134H14.9686H14.9239H14.8792H14.8345H14.7898H14.7451H14.7005H14.656H14.6114H14.5669H14.5224H14.4779H14.4335H14.3891H14.3447H14.3004H14.2561H14.2119H14.1676H14.1235H14.0793H14.0352H13.9911H13.9471H13.9031H13.8591H13.8152H13.7713H13.7275H13.6837H13.6399H13.5962H13.5526H13.5089H13.4653H13.4218H13.3783H13.3348H13.2914H13.248H13.2047H13.1615H13.1182H13.075H13.0319H12.9888H12.9458H12.9028H12.8598H12.817H12.7741H12.7313H12.6886H12.6459H12.6033H12.5607H12.5182H12.4757H12.4333H12.3909H12.3486H12.3063H12.2642H12.222H12.1799H12.1379H12.0959H12.054H12.0122H11.9704H11.9287H11.887H11.8454H11.8039H11.7624H11.721H11.6796H11.6383H11.5971H11.5559H11.5148H11.4738H11.4328H11.3919H11.351H11.3103H11.2696H11.2289H11.1884H11.1479H11.1075H11.0671H11.0268C9.83122 8.48071 7.65353 8.00864 6.35456 6.15912C6.09722 5.79273 5.87947 5.23702 5.74599 4.59043C5.6134 3.94818 5.56978 3.24397 5.64001 2.59594C5.71074 1.94326 5.89334 1.37898 6.18521 0.987274C6.46568 0.610864 6.85443 0.380371 7.40503 0.380371H34.7594C35.4127 0.380371 36.809 0.383327 38.0358 0.839542C38.6445 1.06589 39.1886 1.39592 39.5795 1.87169C39.9652 2.34112 40.2228 2.97732 40.2228 3.86092V3.86686V3.87271V3.87853V3.88428V3.89002V3.89569V3.90132V3.90691V3.91246V3.91798V3.92346V3.92886V3.93422V3.93955V3.94484V3.95008V3.9553V3.96043V3.96557V3.97063V3.97568V3.98067V3.98561V3.99052V3.99539V4.00022V4.00501V4.00977V4.01448V4.01912V4.02377V4.02837V4.03293V4.03742V4.04191V4.04636V4.05077V4.05511V4.05945V4.06374V4.06801V4.07223V4.07641V4.08056V4.08467V4.08874V4.09277V4.0968V4.10076V4.10471V4.10859V4.11247V4.11631V4.12012V4.12388V4.12761V4.13134V4.13499V4.13864V4.14226V4.14583V4.14937V4.15291V4.15637V4.15983V4.16325V4.16664V4.17003V4.17333V4.17664V4.17992V4.18319V4.18638V4.18958V4.19277V4.19589V4.19901V4.20209V4.20514V4.20814V4.21115V4.21411V4.21708V4.22001V4.2229V4.22575V4.22861V4.23142V4.23424V4.23701V4.23975V4.24249V4.24519V4.24785V4.25052V4.25314V4.25573V4.25831V4.2609V4.26345V4.26596V4.26847V4.27094V4.27338V4.27585V4.27825V4.28064V4.28304V4.2854V4.28772V4.29004V4.29232V4.2946V4.29689V4.29913V4.30137V4.30358V4.30575V4.30792V4.31008V4.31225V4.31434V4.31647V4.31857V4.32066V4.32271V4.32477V4.32678V4.3288V4.33082V4.33279V4.33477V4.33675V4.33869V4.34063V4.34253V4.34447V4.34634V4.34824V4.3501V4.35197V4.35383V4.35565V4.35748V4.35931V4.36113V4.36292V4.36471V4.3665V4.36825V4.37003V4.37178V4.37353V4.37525V4.37699V4.37871V4.38042V4.38209V4.3838V4.38548V4.38719V4.38886V4.39054V4.39217V4.39385V4.39552V4.39716V4.39879V4.40043V4.40206V4.4037V4.40533V4.40693V4.40857V4.4102V4.4118V4.4134V4.41503V4.41663V4.41823V4.41983V4.42142V4.42302V4.42462V4.42622V4.42781V4.42941V4.43101V4.43261V4.43424V4.43584V4.43744V4.43904V4.44063V4.44223V4.44383V4.44546V4.44706V4.4487V4.4503V4.45193V4.45357V4.45516V4.4568V4.45847V4.46011V4.46175V4.46338V4.46505V4.46673V4.4684V4.47008V4.47175V4.47342V4.47514V4.47685V4.47856V4.48027V4.48198V4.48373V4.48544V4.48719V4.48898V4.49073V4.49252V4.49431V4.49609V4.49792V4.49971V4.50153V4.5034V4.50522V4.50709V4.50895V4.51085V4.51276V4.51466V4.5166V4.5185V4.52048V4.52242V4.5244V4.52637V4.52839V4.53041V4.53242V4.53448V4.53653V4.53862V4.54071V4.54281V4.54494V4.54707V4.54923V4.5514V4.55357V4.55578V4.55802V4.56027V4.56251V4.56479V4.56711V4.5694V4.57175V4.57411V4.57647V4.57887V4.58126V4.5837V4.58617V4.58864V4.59115V4.59366V4.59621V4.59876V4.60135V4.60393V4.60656V4.60922V4.61189V4.61459V4.61732V4.62006V4.62284V4.62562V4.62843V4.63128V4.63414V4.63703V4.63996V4.64289V4.64585V4.64886V4.65186V4.65491V4.65799V4.66111V4.66423V4.66738V4.67058V4.67377V4.67705V4.68032V4.68359V4.68694V4.69028V4.69367V4.69709V4.70055V4.70402V4.70755V4.71109V4.71467V4.71824V4.72189V4.72555V4.72927V4.733V4.73677V4.74057V4.74437V4.74825V4.75213V4.75609V4.76005V4.76404V4.76807V4.77214V4.77625V4.7804V4.78458V4.7888V4.79303V4.79732V4.80166V4.806V4.81041V4.81486V4.81931V4.82384V4.82836V4.83297V4.83757V4.84225V4.84697V4.85168V4.85647V4.86131V4.86618V4.87108V4.87603V4.88101V4.88603V4.89109V4.89619V4.90136V4.90653V4.91178V4.91707V4.92236V4.92772V4.93316V4.9386V4.94408V4.94963V4.95522V4.96085V4.96652V4.97223V4.97801V4.98383V4.98969V4.99558V5.00152V5.00753V5.01358V5.01966V5.02579V5.03199V5.03819V5.0445V5.05082V5.05721V5.0636V5.0701V5.07661V5.08319V5.08981V5.0965V5.10323V5.11V5.11681V5.1237V5.13062V5.13762V5.14466V5.15173V5.15885V5.16604V5.1733V5.1806V5.18795V5.19536V5.20282V5.21031V5.21788V5.22549V5.23317V5.2409V5.24869V5.25653V5.26444V5.27239V5.28038V5.28844V5.29659V5.30476V5.31302V5.32131V5.32964V5.33805V5.34653V5.35505V5.36365V5.37228V5.38099V5.38978V5.3986V5.40747V5.41641V5.42542V5.43448V5.4436V5.45281V5.46205V5.47137V5.48077V5.4902V5.49967V5.50926V5.51888V5.52858V5.53832V5.54814V5.55803V5.56795V5.57796V5.58804V5.5982V5.60839V5.61866V5.62901V5.63939V5.64989V5.66043V5.671V5.68169V5.69242V5.70322V5.7141V5.72505V5.73605V5.74712V5.75826V5.76948V5.78078V5.79212V5.80357V5.81505V5.82662V5.83826V5.84997V5.86173V5.8736V5.8855V5.89749V5.90954V5.92172V5.93389V5.94618V5.95854V5.97098V5.98349V5.99604V6.00871V6.02142V6.03424V6.04709V6.06003V6.07307V6.08616V6.09936V6.1126V6.12591V6.13934V6.1528V6.16638V6.18V6.19369V6.2075V6.22139V6.23531V6.24934V6.26346V6.27765V6.29191V6.30625V6.32067V6.33516V6.34973V6.36441V6.37913C40.2228 6.97984 39.7943 7.68314 38.8712 8.60547C38.0616 9.41433 36.9477 10.3207 35.6164 11.404C35.4566 11.534 35.2936 11.6667 35.1277 11.8019C32.0455 14.3148 28.0163 17.6905 24.3035 22.641C21.1121 26.8962 18.4612 30.8537 17.1851 34.5079C16.1614 37.4394 15.8171 40.0492 15.729 41.9287C15.6849 42.8687 15.7048 43.6268 15.736 44.1517Z" stroke="white"/>
</g>
<defs>
<clipPath id="clip0_33_2">
<rect width="45" height="45" fill="white"/>
</clipPath>
</defs>
</svg>
